<?xml version="1.0" encoding="utf-8"?>
<!-- Generator: Adobe Illustrator 26.5.0, SVG Export Plug-In . SVG Version: 6.00 Build 0)  -->
<svg version="1.1" id="Logo__x28_Color_x29_" xmlns="http://www.w3.org/2000/svg" xmlns:xlink="http://www.w3.org/1999/xlink"
	 x="0px" y="0px" viewBox="0 0 1000 1000" style="enable-background:new 0 0 1000 1000;" xml:space="preserve">
<style type="text/css">
	.st0{fill:#92000A;}
	.st1{display:none;}
	.st2{display:inline;fill:#92000A;}
</style>
<g>
	<g>
		<g>
			<path class="st0" d="M410.6,340.81h105.93c32.93,0,67.23,25.12,67.23,72.66c0,36.67-20.71,60.1-45.5,68.92l49.91,79.11h-50.59
				l-47.53-75.38H454.4v75.38h-43.8V340.81z M509.4,443.35c16.3,0,30.22-11.54,30.22-29.88c0-18.67-13.92-30.22-30.22-30.22h-55
				v60.1H509.4z"/>
		</g>
		<g>
			<path class="st0" d="M324.22,344.76h-32.33v-8.21l32.33-44.49h12.66v43.41h7.61v9.29h-7.61v11.57h-12.66V344.76z M324.22,335.47
				v-27.09l-19.78,27.09H324.22z"/>
		</g>
		<g class="st1">
			<path class="st2" d="M358.7,647.14l-7.53-11.63h-6.14v11.63h-5.54v-32.43h15.32c4.89,0,9.68,3.74,9.68,10.43
				c0,5.44-3.24,8.98-7.14,10.03l7.78,11.97H358.7z M345.03,630.13h8.93c2.79,0,4.99-2.05,4.99-4.99c0-2.99-2.2-5.04-4.99-5.04
				h-8.93V630.13z"/>
			<path class="st2" d="M390.98,624.19v22.95h-5.34v-2.94c-1.6,2.05-4.04,3.34-7.23,3.34c-6.39,0-11.03-5.04-11.03-11.88
				c0-6.94,4.64-11.83,11.03-11.83c3.19,0,5.64,1.25,7.23,3.34v-2.99H390.98z M385.64,635.67c0-3.94-2.54-6.79-6.49-6.79
				s-6.54,2.84-6.54,6.79c0,3.94,2.59,6.84,6.54,6.84S385.64,639.61,385.64,635.67z"/>
			<path class="st2" d="M417.87,633.07v14.07h-5.39v-13.27c0-4.14-2.89-5.49-5.24-5.49c-2.29,0-5.14,1.35-5.14,5.49v13.27h-5.34
				v-22.95h5.34v2.44c1.75-2.04,4.29-2.79,6.74-2.79C413.13,623.84,417.87,626.24,417.87,633.07z"/>
			<path class="st2" d="M446.36,624.19v21.31c0,6.59-4.44,11.33-12.17,11.33c-4.09,0-7.58-1.65-9.68-4.14l3.54-2.94
				c1.8,1.95,4.09,2.54,6.14,2.54c2.84,0,6.84-1.65,6.84-6.79v-1.35c-1.65,2.1-4.04,3.39-7.28,3.39c-6.39,0-10.98-5.04-10.98-11.88
				c0-6.83,4.59-11.83,10.98-11.83c3.24,0,5.64,1.3,7.28,3.34v-2.99H446.36z M441.02,635.67c0-3.94-2.59-6.79-6.54-6.79
				s-6.49,2.84-6.49,6.79c0,3.94,2.54,6.84,6.49,6.84S441.02,639.61,441.02,635.67z"/>
			<path class="st2" d="M473.74,635.67v1.5h-17.26c0.55,3.59,3.09,5.84,6.49,5.84c3.19,0,5.04-1.45,5.99-2.79l3.69,2.69
				c-2,2.89-5.49,4.69-9.68,4.69c-6.99,0-11.68-5.09-11.68-11.93c0-6.83,4.49-11.88,11.43-11.88
				C469.45,623.79,473.74,628.83,473.74,635.67z M456.53,633.72h12.22c-0.6-3.24-2.64-5.69-6.04-5.69
				C459.32,628.03,457.13,630.28,456.53,633.72z"/>
			<path class="st2" d="M492.1,623.84v5.04c-2.69,0.05-8.08,0.9-8.08,7.13v11.13h-5.34v-22.95h5.34v4.14
				C485.91,625.19,489.01,623.89,492.1,623.84z"/>
			<path class="st2" d="M522.18,647.54c-9.63,0-16.32-6.99-16.32-16.62c0-9.63,6.69-16.62,16.32-16.62c5.74,0,10.33,2.5,13.12,6.49
				l-4.54,3.29c-2.05-2.84-5.24-4.24-8.58-4.24c-6.44,0-10.78,4.69-10.78,11.08S515.75,642,522.18,642c4.59,0,8.48-2.79,9.23-7.68
				h-9.58v-5.09h15.92v2.45C537.4,640.91,531.57,647.54,522.18,647.54z"/>
			<path class="st2" d="M565.74,624.19v22.95h-5.34v-2.94c-1.6,2.05-4.04,3.34-7.23,3.34c-6.39,0-11.03-5.04-11.03-11.88
				c0-6.94,4.64-11.83,11.03-11.83c3.19,0,5.64,1.25,7.23,3.34v-2.99H565.74z M560.4,635.67c0-3.94-2.54-6.79-6.49-6.79
				s-6.54,2.84-6.54,6.79c0,3.94,2.59,6.84,6.54,6.84S560.4,639.61,560.4,635.67z"/>
			<path class="st2" d="M573.92,639.91c0.6,1.55,3.34,3.59,6.44,3.59c2.64,0,3.99-0.9,3.99-2.74c0-2.2-3.34-2.74-5.24-3.34
				c-1.9-0.6-7.93-1.95-7.93-6.89c0-4.69,4.09-6.84,9.03-6.84c4.89,0,8.13,2.25,9.28,4.74l-3.54,2.25c-0.7-1.3-3.24-2.84-5.94-2.84
				c-2.39,0-3.64,1-3.64,2.44c0,2.15,3.19,2.64,5.09,3.24c1.9,0.6,8.13,2.1,8.13,7.04c0,4.74-3.49,7.23-9.28,7.23
				c-5.49,0-8.98-2.59-10.13-5.44L573.92,639.91z"/>
			<path class="st2" d="M619.82,619.85c-6.44,0-10.78,4.69-10.78,11.08S613.38,642,619.82,642c3.84,0,6.94-2.1,8.63-4.44l4.49,3.44
				c-2.79,4.04-7.38,6.54-13.12,6.54c-9.63,0-16.32-6.99-16.32-16.62c0-9.63,6.69-16.62,16.32-16.62c5.74,0,10.33,2.5,13.12,6.54
				l-4.49,3.29C626.75,621.75,623.66,619.85,619.82,619.85z"/>
			<path class="st2" d="M635.68,635.67c0-6.94,4.89-11.92,11.83-11.92s11.78,4.99,11.78,11.92c0,6.84-4.84,11.93-11.78,11.93
				S635.68,642.5,635.68,635.67z M653.94,635.67c0-3.89-2.54-6.79-6.44-6.79s-6.49,2.89-6.49,6.79c0,3.89,2.59,6.84,6.49,6.84
				S653.94,639.56,653.94,635.67z"/>
		</g>
		<g>
			<path class="st0" d="M312.76,606.19h18.72c5.82,0,11.88,4.44,11.88,12.84c0,6.48-3.66,10.62-8.04,12.18l8.82,13.98h-8.94
				l-8.4-13.32h-6.3v13.32h-7.74V606.19z M330.22,624.31c2.88,0,5.34-2.04,5.34-5.28c0-3.3-2.46-5.34-5.34-5.34h-9.72v10.62H330.22z
				"/>
			<path class="st0" d="M344.74,631.38c0-8.34,5.52-14.22,13.08-14.22c3.48,0,6.06,1.26,7.92,3.36v-2.94h7.5v27.6h-7.5v-2.88
				c-1.86,2.1-4.44,3.36-7.92,3.36C350.26,645.67,344.74,639.6,344.74,631.38z M365.74,631.38c0-4.14-2.7-7.2-6.84-7.2
				s-6.9,3.06-6.9,7.2c0,4.14,2.76,7.2,6.9,7.2S365.74,635.53,365.74,631.38z"/>
			<path class="st0" d="M378.04,617.59h7.5v2.64c2.1-2.28,5.04-3.06,7.74-3.06c4.98,0,10.74,2.7,10.74,11.16v16.86h-7.5v-15.72
				c0-4.86-3.42-6-5.52-6c-2.16,0-5.46,1.14-5.46,6v15.72h-7.5V617.59z"/>
			<path class="st0" d="M409.84,651.96l4.86-4.14c2.16,2.28,4.74,2.82,6.84,2.82c2.58,0,7.26-1.44,7.26-7.38v-1.02
				c-1.86,2.1-4.5,3.42-7.98,3.42c-7.56,0-13.02-6.06-13.02-14.28s5.46-14.22,13.02-14.22c3.48,0,6.12,1.26,7.98,3.42v-3h7.5v25.68
				c0,7.92-5.22,13.68-14.76,13.68C416.56,656.94,412.36,654.96,409.84,651.96z M428.8,631.38c0-4.14-2.76-7.2-6.9-7.2
				s-6.84,3.06-6.84,7.2c0,4.14,2.7,7.2,6.84,7.2S428.8,635.53,428.8,631.38z"/>
			<path class="st0" d="M440.08,631.38c0-8.22,5.4-14.34,13.74-14.34c8.22,0,13.26,6.12,13.26,14.34v2.04h-19.8
				c0.72,3.72,3.42,5.94,6.84,5.94c3.66,0,5.58-1.68,6.54-2.94l5.1,3.72c-2.4,3.48-6.6,5.64-11.64,5.64
				C445.66,645.78,440.08,639.6,440.08,631.38z M460.06,628.69c-0.66-3.24-2.7-5.7-6.24-5.7c-3.42,0-5.7,2.22-6.42,5.7H460.06z"/>
			<path class="st0" d="M470.86,617.59h7.5v4.98c2.34-3.78,6.06-5.34,9.72-5.4v7.02c-2.7,0.06-9.72,0.48-9.72,8.34v12.66h-7.5
				V617.59z"/>
			<path class="st0" d="M500.67,625.69c0-11.58,8.1-19.98,19.68-19.98c6.9,0,12.42,3,15.78,7.8l-6.3,4.62
				c-2.34-3.24-5.94-4.68-9.48-4.68c-7.14,0-11.94,5.16-11.94,12.24c0,7.08,4.8,12.24,11.94,12.24c4.56,0,8.94-2.64,9.9-7.68h-10.38
				v-7.08h19.14l0.06,3.42c-0.42,11.1-7.44,19.08-18.72,19.08C508.77,645.67,500.67,637.26,500.67,625.69z"/>
			<path class="st0" d="M542.25,631.38c0-8.34,5.52-14.22,13.08-14.22c3.48,0,6.06,1.26,7.92,3.36v-2.94h7.5v27.6h-7.5v-2.88
				c-1.86,2.1-4.44,3.36-7.92,3.36C547.77,645.67,542.25,639.6,542.25,631.38z M563.25,631.38c0-4.14-2.7-7.2-6.84-7.2
				s-6.9,3.06-6.9,7.2c0,4.14,2.76,7.2,6.9,7.2S563.25,635.53,563.25,631.38z"/>
			<path class="st0" d="M573.93,639.37l5.1-3.42c0.66,1.56,3.9,4.08,7.38,4.08c2.58,0,3.96-0.78,3.96-2.58
				c0-2.22-3.54-2.82-5.7-3.54c-2.16-0.72-9.54-2.46-9.54-8.52c0-5.88,5.16-8.4,11.1-8.4c6,0,10.02,2.82,11.4,5.82l-4.86,3.12
				c-0.84-1.32-3.84-3.24-6.78-3.24c-2.46,0-3.54,0.96-3.54,2.34c0,2.22,3.42,2.82,5.58,3.54s9.66,2.64,9.66,8.58
				c0,5.82-4.32,8.88-11.4,8.88C579.51,646.02,575.31,642.72,573.93,639.37z"/>
			<path class="st0" d="M610.41,625.69c0-11.58,8.1-19.98,19.68-19.98c6.9,0,12.42,3,15.78,7.86l-6.24,4.62
				c-1.86-2.58-5.28-4.74-9.54-4.74c-7.14,0-11.94,5.16-11.94,12.24c0,7.08,4.8,12.24,11.94,12.24c4.26,0,7.68-2.46,9.54-4.92
				l6.24,4.8c-3.36,4.86-8.88,7.86-15.78,7.86C618.51,645.67,610.41,637.26,610.41,625.69z"/>
			<path class="st0" d="M647.01,631.38c0-8.34,5.88-14.34,14.22-14.34c8.4,0,14.22,6,14.22,14.34c0,8.22-5.82,14.4-14.22,14.4
				C652.89,645.78,647.01,639.6,647.01,631.38z M668.07,631.38c0-4.14-2.7-7.2-6.84-7.2c-4.08,0-6.84,3.06-6.84,7.2
				c0,4.14,2.76,7.2,6.84,7.2C665.37,638.58,668.07,635.53,668.07,631.38z"/>
			<path class="st0" d="M678.03,641.52c0-2.28,1.68-3.9,4.02-3.9c2.28,0,3.96,1.62,3.96,3.9c0,2.34-1.68,4.02-3.96,4.02
				C679.71,645.54,678.03,643.86,678.03,641.52z"/>
		</g>
	</g>
	<g>
		<path class="st0" d="M251.88,252.06v495h495v-495H251.88z M726.88,727.06h-455v-455h455V727.06z"/>
	</g>
	<g>
		<path class="st0" d="M482.83,691.81c-1.43,0-2.5,1.08-2.5,2.5s1.08,2.5,2.5,2.5s2.5-1.08,2.5-2.5S484.25,691.81,482.83,691.81z"/>
		<path class="st0" d="M416.32,688.74c3-2.62,8.01-6.99,8.01-12.13c0-5.04-3.88-8.3-9.89-8.3c-5.2,0-8.83,3.02-9.73,6l-0.19,0.64
			l4.14,1.83l0.25-0.79c0.58-1.82,2.96-3.19,5.53-3.19c3.31,0,5.21,1.45,5.21,3.98c0,3.2-4.38,7.03-7.57,9.82l-7.32,6.4l0.06,3.7
			h19.48v-4.36h-12l3.59-3.21L416.32,688.74z"/>
		<polygon class="st0" points="430.81,673.04 442.99,673.04 432.05,696.7 436.97,696.7 448.46,671.81 448.46,668.69 430.81,668.69 
					"/>
		<path class="st0" d="M470.42,668.69h-4.19l-14.32,19.26v3.16h13.95v5.59h4.56v-5.59h3.14v-3.87h-3.14V668.69z M465.86,687.25
			h-8.56l8.56-11.47V687.25z"/>
		<path class="st0" d="M503.32,688.74c3-2.62,8.01-6.99,8.01-12.13c0-5.04-3.88-8.3-9.89-8.3c-5.2,0-8.83,3.02-9.73,6l-0.19,0.64
			l4.14,1.83l0.25-0.79c0.58-1.82,2.96-3.19,5.53-3.19c3.31,0,5.2,1.45,5.2,3.98c0,3.2-4.38,7.03-7.57,9.83l-7.32,6.4l0.06,3.7
			h19.48v-4.36h-12l3.59-3.21L503.32,688.74z"/>
		<path class="st0" d="M529.06,668.36c-6.91,0-11.56,5.76-11.56,14.33s4.65,14.33,11.56,14.33c6.94,0,11.6-5.76,11.6-14.33
			S536,668.36,529.06,668.36z M529.06,692.51c-4.25,0-7-3.85-7-9.81c0-6,2.68-9.73,7-9.73c4.29,0,6.96,3.73,6.96,9.73
			C536.02,688.75,533.35,692.51,529.06,692.51z"/>
		<path class="st0" d="M559.47,688.74c3-2.62,8.01-6.99,8.01-12.13c0-5.04-3.88-8.3-9.89-8.3c-5.2,0-8.83,3.02-9.73,6l-0.19,0.64
			l4.14,1.83l0.25-0.79c0.58-1.82,2.96-3.19,5.53-3.19c3.31,0,5.21,1.45,5.21,3.98c0,3.2-4.38,7.03-7.57,9.82l-7.32,6.4l0.06,3.7
			h19.48v-4.36h-12l3.59-3.21L559.47,688.74z"/>
		<path class="st0" d="M583.55,678.23c-0.8,0-1.65,0.07-2.47,0.21l0.87-5.4h11.04v-4.36h-14.77l-1.93,11.95l1.46,3.21l0.72-0.43
			c1.13-0.67,3.14-1.12,5-1.12c3.62,0,6.06,2.04,6.06,5.08c0,3.15-2.28,5.13-5.94,5.16c-2.37,0-4.52-0.97-5.9-2.66l-0.52-0.64
			l-3.19,3.13l0.42,0.53c2.05,2.58,5.55,4.12,9.36,4.12c6.18,0,10.33-3.81,10.33-9.48C594.09,681.89,589.95,678.23,583.55,678.23z"
			/>
	</g>
</g>
</svg>
